<?xml version="1.0" encoding="iso-8859-1"?>
<!-- Uploaded to: SVG Repo, www.svgrepo.com, Generator: SVG Repo Mixer Tools -->
<svg fill="#000000" height="800px" width="800px" version="1.1" id="Layer_1" xmlns="http://www.w3.org/2000/svg" xmlns:xlink="http://www.w3.org/1999/xlink" 
	 viewBox="0 0 512 512" xml:space="preserve">
<g>
	<g>
		<g>
			<path d="M422.741,42.667h-60.07V32.491C362.671,14.543,348.128,0,330.18,0H181.828c-17.947,0-32.491,14.543-32.491,32.491v10.176
				H89.259c-25.734,0-46.592,20.858-46.592,46.592v376.149c0,25.734,20.858,46.592,46.592,46.592h333.483
				c25.734,0,46.592-20.858,46.592-46.592V89.259C469.333,63.525,448.475,42.667,422.741,42.667z M192.004,42.667H320v42.667
				H192.004V42.667z M426.667,465.408c0,2.17-1.755,3.925-3.925,3.925H89.259c-2.17,0-3.925-1.755-3.925-3.925V89.259
				c0-2.17,1.755-3.925,3.925-3.925h60.075v10.176c0,17.947,14.543,32.491,32.491,32.491h0.004h148.348h0.004
				c17.947,0,32.491-14.543,32.491-32.491V85.333h60.07c2.17,0,3.925,1.755,3.925,3.925V465.408z"/>
			<path d="M338.293,245.024c-8.286-13.81-28.3-13.81-36.586,0l-49.942,83.237l-44.68-44.68c-8.331-8.331-21.839-8.331-30.17,0
				l-64,64c-8.331,8.331-8.331,21.839,0,30.17c8.331,8.331,21.839,8.331,30.17,0L192,328.837l48.915,48.915
				c9.814,9.814,26.238,7.792,33.378-4.109L320,297.465l45.707,76.178c6.062,10.103,19.166,13.379,29.269,7.317
				c10.103-6.062,13.379-19.166,7.317-29.269L338.293,245.024z"/>
			<path d="M181.333,234.667c17.664,0,32-14.336,32-32s-14.336-32-32-32s-32,14.336-32,32S163.669,234.667,181.333,234.667z"/>
		</g>
	</g>
</g>
</svg>